#tb 0: 1/25
#media_type 0: video
#codec_id 0: rawvideo
#dimensions 0: 192x128
#sar 0: 0/1
0,          1,          1,        1,    36864, 0x36df68f4
0,          2,          2,        1,    36864, 0x52d4c6d9
0,          3,          3,        1,    36864, 0xad16b0be
0,          4,          4,        1,    36864, 0xf8c72556
0,          5,          5,        1,    36864, 0x70aaad30
0,          6,          6,        1,    36864, 0x53cffd5e
0,          7,          7,        1,    36864, 0xb3fa8abc
0,          8,          8,        1,    36864, 0x9c894009
0,          9,          9,        1,    36864, 0xfbc08050
0,         10,         10,        1,    36864, 0x9d5b2d65
0,         11,         11,        1,    36864, 0x3bd8bb5d
0,         12,         12,        1,    36864, 0x8d976ecf
0,         13,         13,        1,    36864, 0x25010368
0,         14,         14,        1,    36864, 0xb6e6a11c
0,         15,         15,        1,    36864, 0x595a3967
0,         16,         16,        1,    36864, 0x4fbcb9a8
0,         17,         17,        1,    36864, 0xc7c5c16b
0,         18,         18,        1,    36864, 0x661ae1eb
0,         19,         19,        1,    36864, 0x169f04a7
0,         20,         20,        1,    36864, 0xd124c93a
0,         21,         21,        1,    36864, 0x3f642dba
0,         22,         22,        1,    36864, 0xe7ad6956
0,         23,         23,        1,    36864, 0x47dc76d3
0,         24,         24,        1,    36864, 0x496a3917
0,         25,         25,        1,    36864, 0xa976d5f3
0,         26,         26,        1,    36864, 0x507bb685
0,         27,         27,        1,    36864, 0x2f61ac12
0,         28,         28,        1,    36864, 0x527818d8
0,         29,         29,        1,    36864, 0xa4983396
0,         30,         30,        1,    36864, 0x3ec9b07b
0,         31,         31,        1,    36864, 0x7db52d99
0,         32,         32,        1,    36864, 0xe974fd00
0,         33,         33,        1,    36864, 0x9c677a4f
0,         34,         34,        1,    36864, 0x108f3a05
0,         35,         35,        1,    36864, 0x23a56ba2
0,         36,         36,        1,    36864, 0x4c8d47e8
0,         37,         37,        1,    36864, 0x9e0b0f09
0,         38,         38,        1,    36864, 0x4d262b16
0,         39,         39,        1,    36864, 0x6122402e
0,         40,         40,        1,    36864, 0xed037036
0,         41,         41,        1,    36864, 0x62b3ba08
0,         42,         42,        1,    36864, 0x7f876930
0,         43,         43,        1,    36864, 0x4a6c0983
0,         44,         44,        1,    36864, 0xf9787086
0,         45,         45,        1,    36864, 0x01d1b1b5
0,         46,         46,        1,    36864, 0xc1622655
0,         47,         47,        1,    36864, 0x27e8e0f7
0,         48,         48,        1,    36864, 0xc1622655
0,         49,         49,        1,    36864, 0x12c2b7e9
0,         50,         50,        1,    36864, 0xd752d2ef
0,         51,         51,        1,    36864, 0xcbb1c3a7
0,         52,         52,        1,    36864, 0x18c56fba
0,         53,         53,        1,    36864, 0xb1b3771c
0,         54,         54,        1,    36864, 0x284ef3c4
0,         55,         55,        1,    36864, 0xda6eb5a0
0,         56,         56,        1,    36864, 0x17ad337c
0,         57,         57,        1,    36864, 0xe2801e4f
0,         58,         58,        1,    36864, 0x6c33bd17
